<?xml version="1.0" standalone="no"?>
<!DOCTYPE svg PUBLIC "-//W3C//DTD SVG 20010904//EN"
 "http://www.w3.org/TR/2001/REC-SVG-20010904/DTD/svg10.dtd">
<svg version="1.0" xmlns="http://www.w3.org/2000/svg"
 width="349.000000pt" height="349.000000pt" viewBox="0 0 349.000000 349.000000"
 preserveAspectRatio="xMidYMid meet">
<metadata>
Created by potrace 1.11, written by Peter Selinger 2001-2013
</metadata>
<g transform="translate(0.000000,349.000000) scale(0.100000,-0.100000)"
fill="#000000" stroke="none">
<path d="M1580 3334 c-14 -3 -65 -12 -115 -20 -123 -20 -304 -82 -434 -149
-719 -368 -1047 -1222 -762 -1980 189 -502 608 -864 1146 -991 113 -27 132
-29 345 -28 197 0 237 3 320 22 153 36 246 70 385 138 437 215 737 598 851
1089 26 111 28 135 28 330 0 231 -14 326 -75 510 -181 542 -655 956 -1217
1061 -84 16 -416 28 -472 18z m215 -814 l0 -165 -85 -11 c-60 -7 -87 -7 -93 0
-9 14 -4 365 6 359 21 -13 39 -75 47 -169 11 -126 19 -172 31 -180 5 -3 9 13
9 35 0 22 14 93 31 158 19 74 28 131 25 152 l-5 34 17 -24 c14 -20 17 -49 17
-189z m140 85 c-3 -27 -15 -81 -26 -120 -10 -38 -19 -89 -19 -113 0 -36 -3
-43 -16 -38 -9 3 -27 6 -41 6 -25 0 -26 2 -20 48 3 26 21 81 41 124 19 42 40
96 46 120 21 75 21 75 32 48 5 -14 7 -47 3 -75z m-419 14 c7 -14 24 -72 38
-127 14 -56 32 -115 41 -132 15 -28 14 -31 -2 -36 -57 -18 -125 -51 -172 -82
l-54 -36 -22 29 c-13 15 -42 77 -65 136 -23 60 -53 122 -67 139 -19 23 -21 30
-9 30 24 0 81 -63 126 -140 65 -112 139 -186 92 -93 -11 21 -29 83 -41 137
-11 55 -29 117 -40 138 -10 21 -15 38 -11 38 17 0 67 -69 90 -124 44 -104 85
-180 98 -184 11 -4 12 0 2 19 -7 12 -17 78 -22 147 -5 68 -15 142 -23 164 -13
39 -13 39 7 21 11 -10 26 -30 34 -44z m564 4 c0 -12 -12 -53 -26 -90 -78 -202
-93 -269 -42 -182 15 24 54 74 88 111 33 37 72 86 85 110 l25 43 0 -33 c0 -40
-19 -88 -60 -147 -34 -49 -80 -137 -80 -153 0 -10 74 56 201 180 108 105 87
26 -31 -112 -39 -46 -78 -97 -86 -113 l-15 -28 -32 24 c-38 29 -118 70 -169
86 -34 11 -37 15 -32 39 9 37 30 77 74 142 47 70 80 134 80 157 0 15 2 16 10
3 5 -8 10 -25 10 -37z m-886 -256 c26 -28 74 -79 105 -112 l58 -61 -47 -52
c-26 -29 -60 -76 -75 -105 -15 -29 -29 -53 -31 -55 -7 -10 -90 46 -159 109
-44 39 -98 80 -120 90 l-40 19 31 0 c46 0 90 -18 184 -76 47 -29 98 -56 113
-60 26 -6 22 1 -35 59 -138 143 -195 207 -181 207 25 0 88 -37 139 -83 68 -61
134 -107 153 -107 11 0 8 7 -11 23 -15 12 -53 65 -84 117 -31 52 -72 112 -92
133 l-37 39 40 -16 c22 -9 62 -40 89 -69z m1252 30 c-3 -13 -31 -48 -63 -78
-133 -125 -176 -169 -170 -176 4 -3 17 3 30 15 13 12 74 42 136 67 62 25 125
54 139 65 29 23 38 20 24 -7 -17 -30 -52 -58 -142 -113 -47 -28 -96 -63 -110
-76 l-26 -24 -56 69 -57 70 29 28 c16 15 55 43 87 62 95 55 165 104 170 118 9
22 16 6 9 -20z m-545 -147 c35 -11 80 -30 99 -42 l35 -22 -68 -8 c-38 -4 -101
-19 -140 -32 l-70 -24 -67 23 c-67 23 -117 33 -177 37 -18 1 -33 3 -33 4 0 8
67 42 120 61 86 30 211 31 301 3z m717 -92 c-16 -24 -66 -52 -213 -120 -49
-23 -93 -43 -96 -45 -3 -2 -13 13 -22 32 l-17 35 32 20 c18 11 57 24 88 30 98
20 170 39 198 55 38 20 47 18 30 -7z m-1019 -39 c78 -20 89 -25 78 -36 -4 -3
-39 4 -79 15 -40 12 -99 25 -131 28 -36 4 -53 10 -45 15 16 10 81 2 177 -22z
m495 22 c3 -5 -20 -12 -51 -16 -32 -4 -85 -16 -118 -26 -66 -21 -95 -24 -95
-10 0 8 144 47 205 54 17 2 35 5 42 6 6 0 14 -3 17 -8z m-555 -76 c33 -10 61
-22 61 -27 0 -6 -10 -8 -22 -5 -13 3 -66 17 -118 31 -90 25 -92 26 -39 22 31
-2 84 -12 118 -21z m536 5 c-44 -10 -93 -23 -108 -29 -39 -15 -65 -15 -49 1
17 17 140 47 192 47 41 -1 38 -2 -35 -19z m-1037 -50 c55 -22 115 -43 132 -46
22 -5 29 -11 26 -21 -4 -8 -9 -26 -12 -39 -5 -20 -10 -23 -33 -17 -33 8 -94
40 -195 103 -44 28 -91 50 -105 50 -21 0 -23 2 -11 11 24 16 91 3 198 -41z
m737 31 c8 -14 -10 -22 -30 -15 -13 5 -14 8 -3 15 17 11 26 11 33 0z m-331
-26 c102 -27 102 -27 40 -92 -68 -70 -137 -174 -169 -250 -20 -49 -25 -55 -32
-38 -4 11 -8 74 -8 140 0 109 3 126 29 188 32 77 38 79 140 52z m755 -22 c45
-91 62 -223 40 -325 l-12 -52 -39 78 c-45 93 -110 185 -167 241 -23 21 -41 42
-41 46 0 3 26 14 58 23 31 10 62 19 67 21 6 2 25 4 42 4 28 1 35 -4 52 -36z
m480 21 c-21 -26 -65 -44 -171 -70 -125 -31 -213 -72 -122 -57 19 3 88 0 153
-6 82 -9 129 -10 155 -3 48 14 37 -4 -18 -29 -25 -11 -79 -21 -136 -24 -102
-7 -170 -21 -170 -34 0 -5 11 -6 24 -4 13 3 79 -9 147 -27 69 -18 140 -30 161
-28 32 3 36 1 24 -10 -25 -25 -87 -32 -194 -21 -57 6 -120 8 -140 4 l-37 -8
50 -11 c28 -7 77 -25 110 -41 33 -15 94 -38 135 -50 l75 -23 -36 -10 c-38 -10
-90 -4 -194 21 -91 23 -135 29 -135 19 0 -6 12 -13 26 -16 14 -4 67 -33 118
-65 50 -32 109 -64 131 -72 62 -20 64 -29 7 -29 -39 0 -83 12 -166 45 -122 48
-195 62 -121 23 22 -11 74 -51 115 -88 41 -37 95 -78 120 -91 33 -17 40 -25
27 -27 -39 -8 -87 10 -175 64 -50 30 -108 62 -129 70 l-38 15 36 -30 c19 -17
64 -66 98 -110 34 -44 81 -92 103 -108 29 -19 36 -29 25 -31 -30 -6 -102 34
-177 99 -113 98 -170 130 -109 62 19 -21 59 -80 89 -132 30 -51 67 -104 83
-117 23 -20 25 -24 10 -24 -32 0 -77 35 -148 116 -76 85 -115 123 -128 124 -5
0 2 -13 16 -29 13 -16 41 -74 62 -128 21 -54 51 -117 66 -140 32 -48 29 -52
-18 -23 -30 18 -52 47 -132 176 -33 54 -71 95 -71 76 0 -6 4 -13 9 -17 11 -6
32 -76 55 -186 9 -41 25 -92 36 -112 11 -20 16 -37 12 -37 -24 0 -78 79 -122
180 -28 63 -57 121 -66 130 -14 13 -14 12 -3 -15 6 -16 15 -87 20 -157 5 -70
15 -143 23 -162 13 -30 13 -34 0 -29 -27 10 -63 88 -85 183 -12 52 -30 111
-40 130 l-18 35 6 -56 c3 -31 0 -100 -6 -155 -7 -61 -7 -113 -2 -136 12 -50
-3 -49 -29 2 -14 28 -23 74 -30 158 -12 155 -21 176 -36 92 -6 -36 -21 -101
-33 -144 -11 -44 -21 -98 -22 -120 l-1 -41 -20 45 c-19 41 -20 52 -10 156 5
62 7 127 3 146 l-7 33 -6 -37 c-4 -21 -26 -81 -49 -134 -23 -54 -48 -120 -54
-148 l-12 -51 -12 42 c-11 41 -2 117 29 223 5 19 10 53 10 75 l-1 40 -18 -45
c-10 -25 -40 -79 -67 -121 -28 -42 -55 -89 -61 -105 -27 -70 -27 -71 -31 -17
-2 42 5 72 43 166 52 133 58 172 17 106 -16 -24 -58 -77 -94 -116 -36 -40 -74
-90 -84 -110 -14 -29 -19 -34 -22 -20 -8 37 9 84 54 158 44 71 94 163 94 173
0 5 -104 -92 -216 -201 -104 -101 -74 -5 39 125 67 77 104 132 89 132 -5 0
-19 -12 -33 -26 -13 -14 -67 -51 -119 -82 -52 -30 -107 -69 -122 -85 -22 -23
-28 -25 -28 -12 0 33 40 83 130 159 108 92 148 148 66 92 -20 -13 -77 -40
-128 -60 -51 -19 -110 -47 -130 -61 -21 -14 -38 -21 -38 -15 0 20 69 86 127
119 78 47 153 101 153 111 0 5 -19 1 -42 -10 -24 -10 -87 -28 -141 -39 -54
-12 -117 -31 -138 -42 -40 -20 -40 -20 -30 0 17 31 56 57 139 91 91 38 172 80
172 90 0 4 -17 2 -37 -6 -21 -7 -67 -13 -103 -14 -65 0 -163 -13 -210 -26 -23
-7 -24 -6 -10 11 21 26 82 50 175 71 82 18 140 38 148 51 3 5 -80 8 -183 8
-103 0 -186 4 -183 9 13 20 85 38 205 51 72 7 135 18 141 24 8 8 0 11 -28 11
-22 0 -89 14 -150 30 -60 17 -126 30 -145 31 l-35 1 30 14 c24 11 62 13 182 8
100 -5 153 -3 153 3 0 6 -18 13 -39 17 -21 3 -70 20 -107 37 -38 18 -100 42
-139 54 l-70 22 40 8 c29 6 67 2 140 -15 55 -13 121 -26 147 -28 l47 -4 -6
-88 c-7 -113 8 -192 58 -299 53 -113 160 -222 271 -275 347 -166 745 17 844
387 25 95 15 272 -20 358 -11 25 40 38 179 49 66 5 134 14 150 19 43 14 49 13
34 -5z m-987 -36 c-5 -5 -17 -6 -26 -2 -13 5 -14 9 -5 14 16 11 43 0 31 -12z
m163 13 c8 -14 -13 -24 -33 -16 -14 5 -14 7 -2 15 19 12 27 12 35 1z m-225
-60 c0 -4 -16 -23 -36 -42 -90 -86 -169 -224 -202 -357 l-19 -73 -17 25 c-16
25 -15 30 9 102 43 129 91 209 183 306 32 34 59 55 68 51 8 -3 14 -8 14 -12z
m144 -2 c-7 -11 -34 -12 -34 -1 0 14 11 21 26 15 8 -3 11 -9 8 -14z m226 -72
c66 -79 143 -223 161 -303 10 -44 10 -55 -4 -74 l-16 -23 -6 29 c-36 162 -106
295 -217 410 -27 29 -36 43 -26 46 22 9 46 -10 108 -85z m-297 27 c3 -3 -18
-35 -48 -71 -96 -116 -142 -230 -170 -416 -6 -37 -7 -38 -24 -23 -15 14 -17
25 -9 79 19 145 87 284 192 395 41 42 48 47 59 36z m193 -61 c120 -146 213
-414 155 -450 -18 -11 -19 -7 -26 55 -15 143 -82 292 -177 397 -26 29 -45 55
-41 59 16 16 36 1 89 -61z m-90 -45 c94 -122 145 -253 147 -382 l2 -80 -60
-19 c-90 -28 -275 -16 -334 22 -33 22 29 277 94 381 34 55 94 130 103 130 4 0
26 -24 48 -52z"/>
</g>
</svg>
